<?xml version="1.0" encoding="UTF-8"?>
<svg width="14px" height="14px" viewBox="0 0 14 14" version="1.1" xmlns="http://www.w3.org/2000/svg" xmlns:xlink="http://www.w3.org/1999/xlink">
    <!-- Generator: Sketch 50.2 (55047) - http://www.bohemiancoding.com/sketch -->
    <title>return</title>
    <desc>Created with Sketch.</desc>
    <defs></defs>
    <g id="Pages" stroke="none" stroke-width="1" fill="none" fill-rule="evenodd">
        <g id="판매내역" transform="translate(-1594.000000, -284.000000)" fill="#929292" stroke="#929292" stroke-width="0.4">
            <g id="BODY" transform="translate(259.000000, 104.000000)">
                <g id="테이블" transform="translate(1.000000, 170.000000)">
                    <g id="return" transform="translate(1333.000000, 10.000000)">
                        <path d="M1.5,7.25 C1.5,10.6960096 4.30418776,13.5 7.75043998,13.5 C10.0018533,13.5 12.0054123,12.316175 13.1048572,10.5235459 C13.1829327,10.3960789 13.1392104,10.2068656 13.0117345,10.1287956 C12.8841165,10.0507256 12.6948899,10.0988451 12.6168144,10.2264541 C11.6197194,11.8521553 9.80311565,12.9234176 7.75043998,12.9234176 C4.61109543,12.9234176 2.076623,10.3891236 2.076623,7.25 C2.076623,4.11087643 4.61109543,1.57658241 7.75043998,1.57658241 C9.7771378,1.57658241 11.5537101,2.63521156 12.5591805,4.22925893 L10.2371495,3.85225182 C10.0865348,3.80810679 9.92868033,3.89440962 9.88453219,4.04501374 C9.84038405,4.19575981 9.92669296,4.35360314 10.0774496,4.39774818 C10.0774496,4.39774818 11.073289,4.58700877 13.0649678,4.96552997 C13.2151566,5.01052667 13.373295,4.92535941 13.4184368,4.77518112 C13.4186265,4.77442255 13.5033631,4.3291278 13.6726466,3.43929688 C13.7287327,3.14448331 13.8337432,2.59247124 13.9876781,1.78326066 C14.0332458,1.63308237 13.9484984,1.47452931 13.7983096,1.42896482 C13.7591299,1.4170414 13.7176789,1.41377666 13.6770796,1.41945448 C13.5620957,1.43364902 13.4674114,1.51611933 13.4376008,1.62797234 L13.0604252,3.94976835 C11.9557279,2.18056029 9.98595425,1 7.75043998,1 C4.30418776,1 1.5,3.80399037 1.5,7.25 Z" id="Fill-1" transform="translate(7.750000, 7.250000) scale(-1, 1) translate(-7.750000, -7.250000) "></path>
                    </g>
                </g>
            </g>
        </g>
    </g>
</svg>